<svg id="图层_1" data-name="图层 1" xmlns="http://www.w3.org/2000/svg" viewBox="0 0 1127.18 992.33"><defs><style>.cls-1{fill:#f9a3e7;}</style></defs><title>logo</title><path class="cls-1" d="M624.63,634.32l-6.43,12.43a656.83,656.83,0,0,0,476.48,50,75,75,0,0,1,94.91,72.31v61.31c0,165.69-134.31,300-300,300H362.41c-165.69,0-300-134.31-300-300V438c0-165.69,134.31-300,300-300H889.59c165.69,0,300,134.31,300,300V549.42a140,140,0,0,1-104,135.29A642.88,642.88,0,0,1,624.63,634.32Z" transform="translate(-62.41 -138.04)"/></svg>
